<svg width="263" height="394" viewBox="0 0 263 394" fill="none" xmlns="http://www.w3.org/2000/svg">
<path d="M65.6667 394C101.915 394 131.333 364.581 131.333 328.333V262.667H65.6667C29.4187 262.667 0 292.085 0 328.333C0 364.581 29.4187 394 65.6667 394Z" fill="#181818"/>
<path d="M0 197C0 160.752 29.4187 131.333 65.6667 131.333H131.333V262.667H65.6667C29.4187 262.667 0 233.248 0 197Z" fill="#181818"/>
<path d="M0 65.6667C0 29.4187 29.4187 0 65.6667 0H131.333V131.333H65.6667C29.4187 131.333 0 101.915 0 65.6667Z" fill="#181818"/>
<path d="M131.333 0H197C233.248 0 262.667 29.4187 262.667 65.6667C262.667 101.915 233.248 131.333 197 131.333H131.333V0Z" fill="#181818"/>
<path d="M262.667 197C262.667 233.248 233.248 262.667 197 262.667C160.752 262.667 131.333 233.248 131.333 197C131.333 160.752 160.752 131.333 197 131.333C233.248 131.333 262.667 160.752 262.667 197Z" fill="#181818"/>
</svg>
