<svg width="25" height="24" viewBox="0 0 25 24" fill="none" xmlns="http://www.w3.org/2000/svg">
<path d="M8.54117 12C8.54117 9.79095 10.3315 7.99968 12.5405 7.99968C14.7496 7.99968 16.5408 9.79095 16.5408 12C16.5408 14.209 14.7496 16.0003 12.5405 16.0003C10.3315 16.0003 8.54117 14.209 8.54117 12ZM6.37865 12C6.37865 15.4032 9.1373 18.1619 12.5405 18.1619C15.9438 18.1619 18.7024 15.4032 18.7024 12C18.7024 8.59677 15.9438 5.83813 12.5405 5.83813C9.1373 5.83813 6.37865 8.59677 6.37865 12ZM17.5063 5.59386C17.5063 6.38869 18.1509 7.03425 18.9467 7.03425C19.7415 7.03425 20.3871 6.38869 20.3871 5.59386C20.3871 4.79903 19.7425 4.15444 18.9467 4.15444C18.1509 4.15444 17.5063 4.79903 17.5063 5.59386ZM7.69206 21.7677C6.52211 21.7144 5.88625 21.5195 5.46363 21.3548C4.90337 21.1367 4.50402 20.8769 4.08334 20.4572C3.66363 20.0375 3.40289 19.6381 3.18576 19.0779C3.02098 18.6553 2.82615 18.0194 2.77284 16.8494C2.71468 15.5845 2.70305 15.2045 2.70305 12C2.70305 8.79548 2.71565 8.41648 2.77284 7.15057C2.82615 5.98061 3.02195 5.34572 3.18576 4.92213C3.40386 4.36187 3.66363 3.96252 4.08334 3.54184C4.50305 3.12213 4.9024 2.86139 5.46363 2.64426C5.88625 2.47948 6.52211 2.28465 7.69206 2.23134C8.957 2.17318 9.33697 2.16155 12.5405 2.16155C15.745 2.16155 16.124 2.17415 17.39 2.23134C18.5599 2.28465 19.1948 2.48045 19.6184 2.64426C20.1787 2.86139 20.578 3.12213 20.9987 3.54184C21.4184 3.96155 21.6782 4.36187 21.8963 4.92213C22.061 5.34475 22.2559 5.98061 22.3092 7.15057C22.3673 8.41648 22.379 8.79548 22.379 12C22.379 15.2036 22.3673 15.5835 22.3092 16.8494C22.2559 18.0194 22.0601 18.6553 21.8963 19.0779C21.6782 19.6381 21.4184 20.0375 20.9987 20.4572C20.579 20.8769 20.1787 21.1367 19.6184 21.3548C19.1958 21.5195 18.5599 21.7144 17.39 21.7677C16.125 21.8258 15.745 21.8375 12.5405 21.8375C9.33697 21.8375 8.957 21.8258 7.69206 21.7677V21.7677ZM7.59319 0.0726979C6.31565 0.130856 5.44327 0.333441 4.68043 0.630048C3.89142 0.936349 3.2226 1.34733 2.55474 2.01422C1.88786 2.6811 1.47688 3.34992 1.17058 4.1399C0.873968 4.90275 0.671384 5.77512 0.613225 7.05267C0.554098 8.33215 0.540527 8.7412 0.540527 12C0.540527 15.2588 0.554098 15.6679 0.613225 16.9473C0.671384 18.2249 0.873968 19.0973 1.17058 19.8601C1.47688 20.6491 1.88689 21.3189 2.55474 21.9858C3.22163 22.6527 3.89045 23.0627 4.68043 23.37C5.44424 23.6666 6.31565 23.8691 7.59319 23.9273C8.87364 23.9855 9.28172 24 12.5405 24C15.8003 24 16.2084 23.9864 17.4879 23.9273C18.7654 23.8691 19.6378 23.6666 20.4006 23.37C21.1896 23.0627 21.8585 22.6527 22.5263 21.9858C23.1932 21.3189 23.6032 20.6491 23.9105 19.8601C24.2071 19.0973 24.4106 18.2249 24.4678 16.9473C24.526 15.6669 24.5396 15.2588 24.5396 12C24.5396 8.7412 24.526 8.33215 24.4678 7.05267C24.4097 5.77512 24.2071 4.90275 23.9105 4.1399C23.6032 3.35089 23.1932 2.68207 22.5263 2.01422C21.8594 1.34733 21.1896 0.936349 20.4016 0.630048C19.6378 0.333441 18.7654 0.129887 17.4888 0.0726979C16.2093 0.0145396 15.8003 0 12.5415 0C9.28172 0 8.87364 0.0135703 7.59319 0.0726979" fill="white"/>
</svg>
