<svg width="218" height="48" viewBox="0 0 218 48" fill="none" xmlns="http://www.w3.org/2000/svg">
<path d="M84.8538 17.0434V15.3054H73.5458V32.7954H75.5258V24.7434H84.4138V23.0054H75.5258V17.0434H84.8538Z" fill="white"/>
<path d="M87.1392 17.6154H89.0312V15.3054H87.1392V17.6154ZM87.1392 32.7954H89.0312V20.4094H87.1392V32.7954Z" fill="white"/>
<path d="M100.79 20.4094L100.768 22.0374C99.8875 20.8714 98.4575 20.1894 96.6975 20.1894C93.6835 20.1894 91.6595 22.1914 91.6595 25.2274V27.5374C91.6595 30.5734 93.6835 32.5754 96.6975 32.5754C98.4575 32.5754 99.8656 31.9154 100.746 30.7494V34.3794C100.746 35.1934 100.174 35.7654 99.2936 35.7654H92.5395V37.3054H99.2936C101.252 37.3054 102.55 36.1614 102.55 34.4894V20.4094H100.79ZM97.0935 30.9034C94.9815 30.9034 93.5515 29.4734 93.5515 27.3614V25.4034C93.5515 23.2694 94.9815 21.8614 97.0935 21.8614C99.2276 21.8614 100.658 23.2694 100.658 25.4034V27.3614C100.658 29.4734 99.2276 30.9034 97.0935 30.9034Z" fill="white"/>
<path d="M119.451 20.1894C117.537 20.1894 116.063 21.0034 115.249 22.3674C114.479 21.0034 113.049 20.1894 111.201 20.1894C109.617 20.1894 108.319 20.7834 107.505 21.8174L107.483 20.4094H105.723V32.7954H107.615V25.1174C107.615 23.1594 108.891 21.8614 110.805 21.8614C112.697 21.8614 113.973 23.1594 113.973 25.1174V32.7954H115.865V25.1174C115.865 23.1594 117.163 21.8614 119.055 21.8614C120.969 21.8614 122.245 23.1594 122.245 25.1174V32.7954H124.137V24.8534C124.137 22.0594 122.267 20.1894 119.451 20.1894Z" fill="white"/>
<path d="M135.744 20.4094L135.722 22.0814C134.842 20.8714 133.412 20.1894 131.652 20.1894C128.638 20.1894 126.614 22.2354 126.614 25.3374V27.8454C126.614 30.9694 128.638 33.0154 131.652 33.0154C133.412 33.0154 134.842 32.3114 135.722 31.1234L135.744 32.7954H137.504V20.4094H135.744ZM132.048 31.3434C129.936 31.3434 128.506 29.8694 128.506 27.6694V25.5354C128.506 23.3134 129.936 21.8614 132.048 21.8614C134.182 21.8614 135.612 23.3134 135.612 25.5354V27.6694C135.612 29.8694 134.182 31.3434 132.048 31.3434Z" fill="white"/>
<path d="M162.703 15.3054H160.525L154.519 24.9414L148.491 15.3054H146.313V32.7954H148.271L148.227 18.3414L153.991 27.4934H155.025L160.811 18.2974L160.745 32.7954H162.703V15.3054Z" fill="white"/>
<path d="M174.013 16.2954L173.375 14.8434L167.919 17.9234L168.425 18.9794L174.013 16.2954ZM176.257 27.2514V25.4254C176.257 22.2794 174.123 20.1894 170.933 20.1894C167.721 20.1894 165.587 22.2794 165.587 25.4254V27.7574C165.587 30.9254 167.743 33.0154 170.999 33.0154C173.485 33.0154 175.355 31.9374 176.169 30.1554L174.431 29.4954C173.815 30.6394 172.605 31.3434 170.999 31.3434C168.887 31.3434 167.479 29.9134 167.479 27.7574V27.2514H176.257ZM170.933 21.8614C173.001 21.8614 174.365 23.2914 174.365 25.4474V25.7114H167.479V25.4474C167.479 23.2914 168.865 21.8614 170.933 21.8614Z" fill="white"/>
<path d="M187.907 32.7954L183.749 26.3714L187.775 20.4094H185.619L182.539 25.1394L179.437 20.4094H177.281L181.329 26.3714L177.149 32.7954H179.305L182.539 27.6694L185.751 32.7954H187.907Z" fill="white"/>
<path d="M189.727 17.6154H191.619V15.3054H189.727V17.6154ZM189.727 32.7954H191.619V20.4094H189.727V32.7954Z" fill="white"/>
<path d="M199.615 33.0154C201.991 33.0154 203.795 31.8274 204.543 29.8474L202.849 29.2094C202.321 30.5294 201.155 31.3434 199.615 31.3434C197.503 31.3434 196.117 29.8914 196.117 27.7354V25.4694C196.117 23.3134 197.503 21.8614 199.593 21.8614C201.133 21.8614 202.321 22.7414 202.849 24.1054L204.543 23.4674C203.795 21.4434 201.991 20.1894 199.593 20.1894C196.381 20.1894 194.225 22.2574 194.225 25.4034V27.8234C194.225 30.9254 196.381 33.0154 199.615 33.0154Z" fill="white"/>
<path d="M211.626 33.0154C214.882 33.0154 217.06 30.9034 217.06 27.7354V25.4694C217.06 22.3014 214.882 20.1894 211.626 20.1894C208.348 20.1894 206.17 22.3014 206.17 25.4694V27.7354C206.17 30.9034 208.348 33.0154 211.626 33.0154ZM211.626 31.3434C209.492 31.3434 208.062 29.8694 208.062 27.6474V25.5354C208.062 23.3354 209.492 21.8614 211.626 21.8614C213.76 21.8614 215.168 23.3354 215.168 25.5354V27.6474C215.168 29.8694 213.76 31.3434 211.626 31.3434Z" fill="white"/>
<path d="M35.6857 21.3832C35.6857 19.7254 37.0347 18.3764 38.6927 18.3764C40.3506 18.3764 41.6996 19.7254 41.6996 21.3832C41.6996 23.0411 40.3506 24.3901 38.6927 24.3901C37.0348 24.3901 35.6857 23.0411 35.6857 21.3832ZM37.1997 21.3831C37.1997 22.2064 37.8693 22.8761 38.6927 22.8761C39.516 22.8761 40.1857 22.2064 40.1857 21.3831C40.1857 20.5598 39.516 19.8902 38.6927 19.8902C37.8694 19.8902 37.1997 20.5598 37.1997 21.3831Z" fill="white" stroke="#141414" stroke-width="0.2"/>
<path d="M26.1607 33.554C26.1607 32.0759 27.3634 30.8733 28.8414 30.8733C30.3193 30.8733 31.5219 32.0759 31.5219 33.554C31.5219 35.0319 30.3193 36.2345 28.8414 36.2345C27.3634 36.2345 26.1607 35.0319 26.1607 33.554ZM27.6747 33.554C27.6747 34.1974 28.198 34.7206 28.8414 34.7206C29.4847 34.7206 30.008 34.1974 30.008 33.554C30.008 32.9105 29.4847 32.3872 28.8414 32.3872C28.198 32.3872 27.6747 32.9106 27.6747 33.554Z" fill="white" stroke="#141414" stroke-width="0.2"/>
<mask id="path-4-inside-1" fill="white">
<path d="M58.48 24.125C58.1438 21.6058 53.992 20.3697 51.0352 19.8056C51.4595 19.394 51.8684 18.9757 52.2482 18.5616C55.0476 15.5096 56.0435 13.1353 55.2085 11.5047C53.8932 8.93642 48.5307 9.55582 45.533 10.1312C45.9287 8.63179 46.2066 7.15394 46.3284 5.85891C46.5993 2.98033 46.0898 1.13262 44.8142 0.367183C43.2433 -0.575356 40.8499 0.312681 37.5745 2.84699C33.4137 6.06641 31.7058 9.22721 31.6048 9.44522C31.177 9.35175 30.7348 9.30228 30.2835 9.30228C27.1219 9.30228 24.5044 11.6684 24.104 14.7225C20.3621 15.4597 15.7907 16.7135 10.4912 18.8145L3.69369 19.6675C1.47155 19.9463 -0.146277 21.9148 0.0104896 24.1489L0.425943 30.0688C0.547516 31.8011 1.84918 33.1929 3.52676 33.463L3.94427 34.4684C4.20421 35.0944 4.78649 35.5013 5.46371 35.5303C5.48942 35.5314 6.57113 35.5806 7.06816 34.6018L7.55354 33.6672L10.3997 33.7933L10.799 34.7549C11.059 35.381 11.6412 35.7879 12.3185 35.8168C12.3441 35.8179 13.395 35.8561 13.9228 34.8883L14.3994 33.9705L17.2616 34.0974L17.6535 35.0413C17.7164 35.1927 17.7984 35.3308 17.8958 35.4543L17.7148 35.5039L17.062 34.7293C16.6252 34.2109 15.9474 33.9989 15.2929 34.1756C14.6385 34.3526 14.1598 34.8774 14.0436 35.5451L13.8675 36.5568L11.1043 37.3131L10.4407 36.5255C10.0039 36.0072 9.32608 35.7951 8.67159 35.9718C8.01722 36.1488 7.53846 36.6736 7.42226 37.3414L7.24333 38.3697L4.3363 39.1653C2.57828 39.6463 1.44104 41.3111 1.63208 43.1239L1.87854 45.462C1.96092 46.2439 2.83616 48.2495 5.20068 47.9743L33.0067 43.1777C33.3011 43.1319 37.1581 42.4893 40.2942 39.8662C44.341 42.5353 52.6897 41.8033 53.5422 41.6159C55.088 41.2759 56.082 40.6187 56.4966 39.6625C57.7012 36.8836 53.3799 32.9016 50.9247 30.9306C51.7553 30.5766 52.5773 30.1888 53.3327 29.7879C54.8723 28.9706 56.0915 28.1409 56.9561 27.3222C58.1052 26.2338 58.618 25.1582 58.48 24.125ZM38.6456 4.18487C40.5046 2.78163 42.9401 1.24139 43.9323 1.83658C45.206 2.60087 44.8271 7.3435 43.1049 12.193C42.9466 12.6389 43.1797 13.1289 43.6257 13.2872C43.7206 13.321 44.4889 13.3877 44.72 12.7664C44.8146 12.5123 44.898 12.253 44.9828 11.9938C49.3925 11.0152 53.0901 11.1282 53.683 12.2859C54.2108 13.3164 52.5595 15.6865 50.9852 17.4029C49.5759 18.9394 47.9113 20.3769 46.5963 21.3287C46.5668 16.9951 43.0333 13.4783 38.6929 13.4783C37.8647 13.4783 37.0596 13.6061 36.2865 13.8538C35.821 12.191 34.6878 10.8303 33.2197 10.0427C33.2791 9.92283 35.1611 6.81527 38.6456 4.18487ZM33.3658 23.7717C33.713 24.4901 34.3848 24.2529 34.4989 24.2015C34.9305 24.0073 35.1229 23.4999 34.9287 23.0683C34.6895 22.5371 34.5683 21.9702 34.5683 21.3832C34.5683 20.9554 34.6343 20.5344 34.7634 20.1307C35.4769 19.5389 35.9919 18.8315 36.3041 18.026C37.0047 17.5261 37.8281 17.2606 38.691 17.2606C40.9644 17.2606 42.8138 19.11 42.8138 21.3832C42.8138 23.6564 40.9644 25.5059 38.691 25.5059C38.1844 25.5059 37.6899 25.4148 37.2212 25.2353C36.7796 25.0662 36.2837 25.2871 36.1143 25.729C35.9451 26.171 36.1661 26.6665 36.6081 26.8359C37.2732 27.0905 37.9739 27.2198 38.6909 27.2198C41.9093 27.2198 44.5276 24.6015 44.5276 21.3832C44.5276 18.1649 41.9093 15.5466 38.6909 15.5466C37.9883 15.5466 37.3038 15.6702 36.6602 15.9098C36.658 15.7877 36.6525 15.6643 36.6435 15.5394C37.2982 15.3092 37.9847 15.1924 38.6925 15.1924C42.1062 15.1924 44.8834 17.9697 44.8834 21.3833C44.8834 24.797 42.1064 27.5741 38.6928 27.5741C35.2853 27.5741 32.5124 24.8067 32.5023 21.4016C32.6232 21.3556 32.7411 21.3077 32.857 21.2587C32.8561 21.3001 32.7695 22.5382 33.3658 23.7717ZM30.2836 11.016C32.1071 11.016 33.7293 12.1201 34.4329 13.7419C32.8657 13.6816 29.9694 13.7214 25.9095 14.3947C26.4167 12.4531 28.1853 11.016 30.2836 11.016ZM34.9207 15.4884C35.0697 16.8808 34.6715 17.9601 33.7125 18.7754C31.7034 20.4834 27.3193 21.0962 21.0342 20.5474C18.1116 20.2921 15.4363 19.8416 13.5912 19.4713C25.119 15.3001 32.7604 15.3603 34.9207 15.4884ZM23.2565 24.9188C24.5278 24.9188 25.726 24.0618 25.5558 22.4555C26.4132 22.4472 27.2221 22.4095 27.9826 22.3428C27.9826 25.6414 25.8635 27.1573 23.2565 27.1573C20.6496 27.1573 18.5287 25.0362 18.5287 22.4294C18.5287 22.288 18.5371 22.1474 18.5495 22.0073C19.1852 22.0858 19.8377 22.1578 20.5002 22.2198C20.6617 22.2349 20.8207 22.2487 20.9799 22.2623C20.9208 24.3011 21.9853 24.9188 23.2565 24.9188ZM22.7106 22.3852C23.0874 22.4058 23.4566 22.4221 23.8185 22.4338C23.9692 22.9111 23.5826 23.2049 23.2564 23.2049C22.9302 23.2049 22.5556 22.8998 22.7106 22.3852ZM1.75651 24.5449C2.41797 24.6953 2.90781 25.2129 2.90781 25.8283C2.90781 26.3876 2.50332 26.8664 1.93316 27.0622L1.75651 24.5449ZM4.03065 31.7951C3.1377 31.7556 2.3982 31.1294 2.19013 30.2878L24.0966 31.5C23.9361 31.8694 23.818 32.2612 23.7474 32.6691L4.03065 31.7951ZM4.78877 40.8184L24.068 35.5419C24.2848 36.0605 24.5844 36.5358 24.9491 36.953L3.33651 42.9441C3.23391 41.9706 3.84463 41.0768 4.78877 40.8184ZM32.7402 41.4846C32.7345 41.4855 32.7288 41.4864 32.7231 41.4873L4.90932 46.2853C3.85103 46.3759 3.61634 45.5989 3.58297 45.2823L3.52287 44.7126L26.6788 38.2495C27.3373 38.554 28.0695 38.7252 28.8413 38.7252C31.6927 38.7252 34.0125 36.4053 34.0125 33.5539C34.0125 30.7025 31.6927 28.3826 28.8413 28.3826C27.4427 28.3826 26.1729 28.9416 25.2411 29.8468L2.70522 28.5998C3.83412 28.1212 4.62161 27.0594 4.62161 25.8283C4.62161 24.3321 3.45843 23.0855 1.93225 22.8331C2.27891 22.0579 3.0095 21.4804 3.90713 21.3678L8.43598 20.7995L8.97769 26.4446C9.02031 26.888 9.39326 27.2198 9.82974 27.2198C9.85705 27.2198 10.7781 27.091 10.6838 26.2808L10.1373 20.5859L10.5986 20.528C11.4116 20.7831 13.8221 21.3302 16.8503 21.7768C16.8285 21.9932 16.8146 22.2108 16.8146 22.4292C16.8146 25.9812 19.7044 28.871 23.2564 28.871C26.8085 28.871 29.6982 25.9812 29.6982 22.4292C29.6982 22.3295 29.6954 22.2299 29.6908 22.1302C30.0786 22.0663 30.4513 21.9932 30.8075 21.9106C31.0802 26.024 34.5115 29.2878 38.6928 29.2878C39.9958 29.2878 41.225 28.9689 42.3097 28.4081C42.9246 31.5751 42.5195 34.2714 41.0985 36.4349C38.3829 40.5705 32.7953 41.476 32.7402 41.4846ZM25.384 33.5539C25.384 31.6475 26.935 30.0965 28.8413 30.0965C30.7476 30.0965 32.2986 31.6475 32.2986 33.5539C32.2986 35.4604 30.7476 37.0113 28.8413 37.0113C26.935 37.0113 25.384 35.4604 25.384 33.5539ZM53.3201 35.5353C54.6071 37.0407 55.2067 38.3286 54.9241 38.9805C54.6362 39.6445 52.9798 40.3486 49.2585 40.1483C46.2817 39.988 43.4072 39.6549 41.5817 38.6171C41.9164 38.2383 42.2327 37.8294 42.5234 37.388C43.4546 35.974 44.0211 34.3851 44.222 32.6336C44.3919 32.6467 46.1874 32.9836 49.0754 31.6572C50.7243 32.8913 52.2451 34.2779 53.3201 35.5353ZM52.5292 28.2739C47.2952 31.1125 44.6664 30.9542 44.303 30.9224C44.2843 29.7974 44.1299 28.6135 43.841 27.3741C44.9887 26.3866 45.8498 25.0765 46.2832 23.585C47.1739 23.0714 48.2963 22.2387 49.4262 21.2717C51.3574 21.5556 53.1168 21.9927 54.4155 22.5136C55.8392 23.0848 56.7015 23.7547 56.7812 24.3517C56.8769 25.0692 55.8051 26.4973 52.5292 28.2739Z"/>
</mask>
<path d="M58.48 24.125C58.1438 21.6058 53.992 20.3697 51.0352 19.8056C51.4595 19.394 51.8684 18.9757 52.2482 18.5616C55.0476 15.5096 56.0435 13.1353 55.2085 11.5047C53.8932 8.93642 48.5307 9.55582 45.533 10.1312C45.9287 8.63179 46.2066 7.15394 46.3284 5.85891C46.5993 2.98033 46.0898 1.13262 44.8142 0.367183C43.2433 -0.575356 40.8499 0.312681 37.5745 2.84699C33.4137 6.06641 31.7058 9.22721 31.6048 9.44522C31.177 9.35175 30.7348 9.30228 30.2835 9.30228C27.1219 9.30228 24.5044 11.6684 24.104 14.7225C20.3621 15.4597 15.7907 16.7135 10.4912 18.8145L3.69369 19.6675C1.47155 19.9463 -0.146277 21.9148 0.0104896 24.1489L0.425943 30.0688C0.547516 31.8011 1.84918 33.1929 3.52676 33.463L3.94427 34.4684C4.20421 35.0944 4.78649 35.5013 5.46371 35.5303C5.48942 35.5314 6.57113 35.5806 7.06816 34.6018L7.55354 33.6672L10.3997 33.7933L10.799 34.7549C11.059 35.381 11.6412 35.7879 12.3185 35.8168C12.3441 35.8179 13.395 35.8561 13.9228 34.8883L14.3994 33.9705L17.2616 34.0974L17.6535 35.0413C17.7164 35.1927 17.7984 35.3308 17.8958 35.4543L17.7148 35.5039L17.062 34.7293C16.6252 34.2109 15.9474 33.9989 15.2929 34.1756C14.6385 34.3526 14.1598 34.8774 14.0436 35.5451L13.8675 36.5568L11.1043 37.3131L10.4407 36.5255C10.0039 36.0072 9.32608 35.7951 8.67159 35.9718C8.01722 36.1488 7.53846 36.6736 7.42226 37.3414L7.24333 38.3697L4.3363 39.1653C2.57828 39.6463 1.44104 41.3111 1.63208 43.1239L1.87854 45.462C1.96092 46.2439 2.83616 48.2495 5.20068 47.9743L33.0067 43.1777C33.3011 43.1319 37.1581 42.4893 40.2942 39.8662C44.341 42.5353 52.6897 41.8033 53.5422 41.6159C55.088 41.2759 56.082 40.6187 56.4966 39.6625C57.7012 36.8836 53.3799 32.9016 50.9247 30.9306C51.7553 30.5766 52.5773 30.1888 53.3327 29.7879C54.8723 28.9706 56.0915 28.1409 56.9561 27.3222C58.1052 26.2338 58.618 25.1582 58.48 24.125ZM38.6456 4.18487C40.5046 2.78163 42.9401 1.24139 43.9323 1.83658C45.206 2.60087 44.8271 7.3435 43.1049 12.193C42.9466 12.6389 43.1797 13.1289 43.6257 13.2872C43.7206 13.321 44.4889 13.3877 44.72 12.7664C44.8146 12.5123 44.898 12.253 44.9828 11.9938C49.3925 11.0152 53.0901 11.1282 53.683 12.2859C54.2108 13.3164 52.5595 15.6865 50.9852 17.4029C49.5759 18.9394 47.9113 20.3769 46.5963 21.3287C46.5668 16.9951 43.0333 13.4783 38.6929 13.4783C37.8647 13.4783 37.0596 13.6061 36.2865 13.8538C35.821 12.191 34.6878 10.8303 33.2197 10.0427C33.2791 9.92283 35.1611 6.81527 38.6456 4.18487ZM33.3658 23.7717C33.713 24.4901 34.3848 24.2529 34.4989 24.2015C34.9305 24.0073 35.1229 23.4999 34.9287 23.0683C34.6895 22.5371 34.5683 21.9702 34.5683 21.3832C34.5683 20.9554 34.6343 20.5344 34.7634 20.1307C35.4769 19.5389 35.9919 18.8315 36.3041 18.026C37.0047 17.5261 37.8281 17.2606 38.691 17.2606C40.9644 17.2606 42.8138 19.11 42.8138 21.3832C42.8138 23.6564 40.9644 25.5059 38.691 25.5059C38.1844 25.5059 37.6899 25.4148 37.2212 25.2353C36.7796 25.0662 36.2837 25.2871 36.1143 25.729C35.9451 26.171 36.1661 26.6665 36.6081 26.8359C37.2732 27.0905 37.9739 27.2198 38.6909 27.2198C41.9093 27.2198 44.5276 24.6015 44.5276 21.3832C44.5276 18.1649 41.9093 15.5466 38.6909 15.5466C37.9883 15.5466 37.3038 15.6702 36.6602 15.9098C36.658 15.7877 36.6525 15.6643 36.6435 15.5394C37.2982 15.3092 37.9847 15.1924 38.6925 15.1924C42.1062 15.1924 44.8834 17.9697 44.8834 21.3833C44.8834 24.797 42.1064 27.5741 38.6928 27.5741C35.2853 27.5741 32.5124 24.8067 32.5023 21.4016C32.6232 21.3556 32.7411 21.3077 32.857 21.2587C32.8561 21.3001 32.7695 22.5382 33.3658 23.7717ZM30.2836 11.016C32.1071 11.016 33.7293 12.1201 34.4329 13.7419C32.8657 13.6816 29.9694 13.7214 25.9095 14.3947C26.4167 12.4531 28.1853 11.016 30.2836 11.016ZM34.9207 15.4884C35.0697 16.8808 34.6715 17.9601 33.7125 18.7754C31.7034 20.4834 27.3193 21.0962 21.0342 20.5474C18.1116 20.2921 15.4363 19.8416 13.5912 19.4713C25.119 15.3001 32.7604 15.3603 34.9207 15.4884ZM23.2565 24.9188C24.5278 24.9188 25.726 24.0618 25.5558 22.4555C26.4132 22.4472 27.2221 22.4095 27.9826 22.3428C27.9826 25.6414 25.8635 27.1573 23.2565 27.1573C20.6496 27.1573 18.5287 25.0362 18.5287 22.4294C18.5287 22.288 18.5371 22.1474 18.5495 22.0073C19.1852 22.0858 19.8377 22.1578 20.5002 22.2198C20.6617 22.2349 20.8207 22.2487 20.9799 22.2623C20.9208 24.3011 21.9853 24.9188 23.2565 24.9188ZM22.7106 22.3852C23.0874 22.4058 23.4566 22.4221 23.8185 22.4338C23.9692 22.9111 23.5826 23.2049 23.2564 23.2049C22.9302 23.2049 22.5556 22.8998 22.7106 22.3852ZM1.75651 24.5449C2.41797 24.6953 2.90781 25.2129 2.90781 25.8283C2.90781 26.3876 2.50332 26.8664 1.93316 27.0622L1.75651 24.5449ZM4.03065 31.7951C3.1377 31.7556 2.3982 31.1294 2.19013 30.2878L24.0966 31.5C23.9361 31.8694 23.818 32.2612 23.7474 32.6691L4.03065 31.7951ZM4.78877 40.8184L24.068 35.5419C24.2848 36.0605 24.5844 36.5358 24.9491 36.953L3.33651 42.9441C3.23391 41.9706 3.84463 41.0768 4.78877 40.8184ZM32.7402 41.4846C32.7345 41.4855 32.7288 41.4864 32.7231 41.4873L4.90932 46.2853C3.85103 46.3759 3.61634 45.5989 3.58297 45.2823L3.52287 44.7126L26.6788 38.2495C27.3373 38.554 28.0695 38.7252 28.8413 38.7252C31.6927 38.7252 34.0125 36.4053 34.0125 33.5539C34.0125 30.7025 31.6927 28.3826 28.8413 28.3826C27.4427 28.3826 26.1729 28.9416 25.2411 29.8468L2.70522 28.5998C3.83412 28.1212 4.62161 27.0594 4.62161 25.8283C4.62161 24.3321 3.45843 23.0855 1.93225 22.8331C2.27891 22.0579 3.0095 21.4804 3.90713 21.3678L8.43598 20.7995L8.97769 26.4446C9.02031 26.888 9.39326 27.2198 9.82974 27.2198C9.85705 27.2198 10.7781 27.091 10.6838 26.2808L10.1373 20.5859L10.5986 20.528C11.4116 20.7831 13.8221 21.3302 16.8503 21.7768C16.8285 21.9932 16.8146 22.2108 16.8146 22.4292C16.8146 25.9812 19.7044 28.871 23.2564 28.871C26.8085 28.871 29.6982 25.9812 29.6982 22.4292C29.6982 22.3295 29.6954 22.2299 29.6908 22.1302C30.0786 22.0663 30.4513 21.9932 30.8075 21.9106C31.0802 26.024 34.5115 29.2878 38.6928 29.2878C39.9958 29.2878 41.225 28.9689 42.3097 28.4081C42.9246 31.5751 42.5195 34.2714 41.0985 36.4349C38.3829 40.5705 32.7953 41.476 32.7402 41.4846ZM25.384 33.5539C25.384 31.6475 26.935 30.0965 28.8413 30.0965C30.7476 30.0965 32.2986 31.6475 32.2986 33.5539C32.2986 35.4604 30.7476 37.0113 28.8413 37.0113C26.935 37.0113 25.384 35.4604 25.384 33.5539ZM53.3201 35.5353C54.6071 37.0407 55.2067 38.3286 54.9241 38.9805C54.6362 39.6445 52.9798 40.3486 49.2585 40.1483C46.2817 39.988 43.4072 39.6549 41.5817 38.6171C41.9164 38.2383 42.2327 37.8294 42.5234 37.388C43.4546 35.974 44.0211 34.3851 44.222 32.6336C44.3919 32.6467 46.1874 32.9836 49.0754 31.6572C50.7243 32.8913 52.2451 34.2779 53.3201 35.5353ZM52.5292 28.2739C47.2952 31.1125 44.6664 30.9542 44.303 30.9224C44.2843 29.7974 44.1299 28.6135 43.841 27.3741C44.9887 26.3866 45.8498 25.0765 46.2832 23.585C47.1739 23.0714 48.2963 22.2387 49.4262 21.2717C51.3574 21.5556 53.1168 21.9927 54.4155 22.5136C55.8392 23.0848 56.7015 23.7547 56.7812 24.3517C56.8769 25.0692 55.8051 26.4973 52.5292 28.2739Z" fill="white" stroke="#141414" stroke-width="0.6" mask="url(#path-4-inside-1)"/>
</svg>
