<svg width="30" height="24" viewBox="0 0 30 24" fill="none" xmlns="http://www.w3.org/2000/svg">
<path d="M19.7381 0.00532741V0H21.1232L21.6293 0.101221C21.9667 0.166935 22.273 0.253052 22.5483 0.3596C22.8236 0.466149 23.0899 0.590464 23.3474 0.732519C23.6049 0.874575 23.8384 1.01932 24.048 1.1667C24.2557 1.31233 24.4422 1.46682 24.6074 1.63019C24.7707 1.79534 25.0255 1.83796 25.3718 1.75805C25.7181 1.67814 26.091 1.56714 26.4906 1.42508C26.8901 1.28303 27.2853 1.12321 27.6759 0.945616C28.0666 0.768027 28.3046 0.655272 28.3898 0.607325C28.4733 0.55762 28.5177 0.530983 28.523 0.527414L28.5283 0.519423L28.5549 0.506104L28.5816 0.492786L28.6082 0.479467L28.6349 0.466149L28.6402 0.458158L28.6482 0.45283L28.6562 0.447503L28.6615 0.439512L28.6881 0.431521L28.7148 0.426193L28.7095 0.466149L28.7014 0.506104L28.6881 0.54606L28.6748 0.586016L28.6615 0.612653L28.6482 0.63929L28.6349 0.679245C28.626 0.705882 28.6171 0.74139 28.6082 0.785794C28.5993 0.830198 28.515 1.00776 28.3552 1.31853C28.1953 1.62931 27.9956 1.94451 27.7558 2.26415C27.5161 2.5838 27.3012 2.82529 27.1112 2.98868C26.9195 3.15383 26.7925 3.26925 26.7303 3.33496C26.6682 3.40243 26.5927 3.46458 26.5039 3.52142L26.3707 3.60932L26.3441 3.62264L26.3174 3.63596L26.3121 3.64395L26.3041 3.64928L26.2961 3.65461L26.2908 3.6626L26.2642 3.67592L26.2375 3.68923L26.2322 3.69723L26.2242 3.70255L26.2162 3.70788L26.2109 3.71587L26.2056 3.72386L26.1976 3.72919L26.1896 3.73452L26.1842 3.74251H26.3174L27.0633 3.58269C27.5605 3.47614 28.0355 3.3474 28.4884 3.19645L29.2076 2.95671L29.2875 2.93008L29.3274 2.91676L29.3541 2.90344L29.3807 2.89012L29.4073 2.8768L29.434 2.86349L29.4872 2.85549L29.5405 2.85017V2.90344L29.5272 2.90877L29.5139 2.91676L29.5086 2.92475L29.5006 2.93008L29.4926 2.93541L29.4872 2.9434L29.4819 2.95139L29.4739 2.95671L29.4659 2.96204L29.4606 2.97003L29.4553 2.97802L29.4473 2.98335L29.434 3.00999L29.4206 3.03663L29.4127 3.04195C29.4091 3.04728 29.2964 3.19821 29.0744 3.49478C28.8524 3.79312 28.7325 3.94404 28.7148 3.94761C28.697 3.95294 28.6721 3.97958 28.6402 4.02752C28.61 4.07723 28.4218 4.27525 28.0755 4.62153C27.7292 4.96781 27.3901 5.2759 27.058 5.54584C26.7241 5.81754 26.5554 6.15138 26.5519 6.54739C26.5465 6.94162 26.5261 7.38737 26.4906 7.88457C26.4551 8.38181 26.3885 8.91897 26.2908 9.49612C26.1931 10.0733 26.0422 10.7259 25.838 11.4539C25.6338 12.182 25.3851 12.8923 25.0921 13.5849C24.7991 14.2775 24.4928 14.899 24.1731 15.4495C23.8535 16 23.5605 16.4662 23.2941 16.8479C23.0278 17.2297 22.757 17.5893 22.4817 17.9267C22.2064 18.2642 21.8584 18.6442 21.4375 19.0668C21.0149 19.4877 20.7841 19.7185 20.745 19.7594C20.7041 19.7985 20.5301 19.9441 20.2229 20.1962C19.9174 20.4502 19.5889 20.7041 19.2373 20.958C18.8875 21.2102 18.566 21.4207 18.273 21.5893C17.98 21.758 17.6267 21.9507 17.2129 22.1674C16.8009 22.3858 16.3552 22.5882 15.8757 22.7747C15.3962 22.9612 14.8901 23.1343 14.3574 23.2941C13.8246 23.4539 13.3097 23.5783 12.8124 23.667C12.3152 23.7558 11.7514 23.8313 11.121 23.8935L10.1754 23.9867V24H8.44395V23.9867L8.21754 23.9734C8.06661 23.9645 7.9423 23.9556 7.84462 23.9467C7.74697 23.9379 7.37847 23.889 6.73918 23.8002C6.09989 23.7114 5.59823 23.6226 5.23418 23.5339C4.87016 23.4451 4.32852 23.2764 3.60932 23.0277C2.89012 22.7791 2.27481 22.5278 1.76337 22.2739C1.25373 22.0217 0.934082 21.8619 0.80444 21.7945C0.676582 21.7287 0.532741 21.6471 0.372919 21.5494L0.133185 21.4029L0.127885 21.3949L0.119867 21.3896L0.111876 21.3842L0.106548 21.3762L0.0799112 21.3629L0.0532741 21.3496L0.0479734 21.3416L0.0399556 21.3363L0.0319645 21.331L0.0266371 21.323L0.0213363 21.315L0.0133185 21.3097H0V21.2564L0.0266371 21.2617L0.0532741 21.2697L0.173141 21.283C0.253052 21.2919 0.470597 21.3052 0.825749 21.323C1.18093 21.3407 1.55827 21.3407 1.95782 21.323C2.35738 21.3052 2.76583 21.2653 3.18313 21.2031C3.60045 21.141 4.09324 21.0344 4.66149 20.8835C5.22976 20.7325 5.75185 20.5532 6.22777 20.3454C6.70191 20.1359 7.0393 19.9796 7.23998 19.8766C7.43886 19.7754 7.74252 19.5871 8.15094 19.3119L8.7636 18.899L8.76892 18.891L8.77692 18.8857L8.78493 18.8804L8.79023 18.8724L8.79556 18.8644L8.80355 18.859L8.81157 18.8537L8.81687 18.8457L8.84351 18.8377L8.87015 18.8324L8.87547 18.8058L8.88346 18.7791L8.89148 18.7738L8.89678 18.7658L8.68369 18.7525C8.54163 18.7436 8.404 18.7347 8.27081 18.7259C8.13763 18.717 7.92898 18.677 7.64484 18.606C7.36073 18.535 7.0544 18.4284 6.72586 18.2863C6.39735 18.1443 6.0777 17.9756 5.76693 17.7802C5.45618 17.5849 5.23152 17.4224 5.09301 17.2928C4.95628 17.1649 4.77869 16.9838 4.56027 16.7494C4.34363 16.5132 4.15538 16.2708 3.99556 16.0222C3.83574 15.7736 3.68303 15.4868 3.53743 15.1618L3.31632 14.677L3.303 14.6371L3.28968 14.5971L3.28169 14.5705L3.27636 14.5438L3.31632 14.5492L3.35627 14.5572L3.64928 14.5971C3.84464 14.6238 4.15096 14.6326 4.56826 14.6238C4.98558 14.6149 5.27414 14.5971 5.43396 14.5705C5.59379 14.5438 5.69146 14.5261 5.72697 14.5172L5.78024 14.5039L5.84684 14.4906L5.91343 14.4772L5.91876 14.4693L5.92675 14.4639L5.93477 14.4586L5.94007 14.4506L5.88679 14.4373L5.83352 14.424L5.78024 14.4107L5.72697 14.3973L5.6737 14.384C5.63819 14.3751 5.57605 14.3574 5.48724 14.3307C5.39846 14.3041 5.15872 14.2064 4.76804 14.0377C4.37738 13.869 4.0666 13.7048 3.83574 13.545C3.6043 13.3847 3.38363 13.2094 3.17514 13.0202C2.96737 12.8284 2.7392 12.5816 2.49057 12.2797C2.24196 11.9778 2.02 11.6271 1.82464 11.2275C1.62931 10.828 1.48281 10.4462 1.38513 10.0821C1.28784 9.72022 1.22366 9.35022 1.19337 8.97669L1.14539 8.41731L1.17203 8.42264L1.19867 8.43063L1.22531 8.44395L1.25194 8.45727L1.27858 8.47059L1.30522 8.48391L1.71809 8.67037C1.99336 8.79468 2.33519 8.90123 2.74362 8.99001C3.15207 9.07879 3.39623 9.12764 3.47614 9.13651L3.596 9.14983H3.83574L3.83044 9.14184L3.82242 9.13651L3.81443 9.13119L3.8091 9.1232L3.8038 9.11521L3.79578 9.10988L3.78779 9.10455L3.78246 9.09656L3.75583 9.08324L3.72919 9.06992L3.72389 9.06193L3.71587 9.0566L3.70788 9.05128L3.70255 9.04329L3.67592 9.02997L3.64928 9.01665L3.64398 9.00866C3.63865 9.00509 3.56228 8.94827 3.41487 8.83818C3.26925 8.7263 3.11654 8.58158 2.95672 8.404C2.79689 8.22641 2.63707 8.03995 2.47725 7.84462C2.31713 7.64884 2.17452 7.43938 2.05105 7.21865C1.92677 6.99668 1.79534 6.7143 1.65683 6.37159C1.5201 6.03063 1.41621 5.68701 1.34517 5.34073C1.27416 4.99445 1.2342 4.65262 1.22531 4.31521C1.21644 3.97779 1.22531 3.68923 1.25194 3.4495C1.27858 3.20977 1.33185 2.93895 1.41176 2.63707C1.49168 2.33519 1.60712 2.01555 1.75805 1.67814L1.98446 1.17203L1.99778 1.13208L2.0111 1.09212L2.01912 1.08679L2.02442 1.0788L2.02974 1.07081L2.03774 1.06548L2.04575 1.07081L2.05105 1.0788L2.05638 1.08679L2.06437 1.09212L2.07239 1.09745L2.07769 1.10544L2.08302 1.11343L2.09101 1.11876L2.10433 1.14539L2.11765 1.17203L2.12567 1.17736L2.13097 1.18535L2.49057 1.58491C2.7303 1.85128 3.01444 2.14873 3.34295 2.47725C3.67149 2.80576 3.85351 2.97624 3.88901 2.98868C3.92455 3.00288 3.96892 3.04371 4.0222 3.11121C4.07547 3.17692 4.25306 3.33408 4.55494 3.58269C4.85684 3.83129 5.25195 4.11988 5.74029 4.44839C6.22865 4.77691 6.77027 5.101 7.36515 5.42064C7.96006 5.74029 8.59935 6.02885 9.28302 6.28635C9.96671 6.54385 10.4462 6.71254 10.7214 6.79245C10.9967 6.87236 11.4673 6.97446 12.1332 7.09878C12.7991 7.22309 13.3008 7.30301 13.6382 7.33851C13.9756 7.37402 14.2065 7.39445 14.3307 7.39978L14.5172 7.40511L14.5119 7.36515L14.5039 7.32519L14.4506 6.99223C14.4151 6.77026 14.3973 6.45949 14.3973 6.05993C14.3973 5.66038 14.4284 5.29191 14.4906 4.95449C14.5527 4.61708 14.646 4.27525 14.7703 3.92897C14.8946 3.58269 15.0162 3.30475 15.1352 3.09523C15.256 2.88746 15.414 2.65039 15.6093 2.38402C15.8047 2.11765 16.0577 1.84241 16.3685 1.55827C16.6793 1.27413 17.0344 1.02108 17.434 0.799112C17.8335 0.577145 18.202 0.408426 18.5394 0.293008C18.8768 0.177589 19.161 0.1021 19.3918 0.0665927C19.6227 0.0310855 19.7381 0.0106548 19.7381 0.00532741V0.00532741Z" fill="white"/>
</svg>
